<svg viewBox="0 0 286 38" xmlns="http://www.w3.org/2000/svg" fill-rule="evenodd" clip-rule="evenodd" stroke-linejoin="round" stroke-miterlimit="1.414"><path d="M56.792.535v28.85h-2.64V25.81c-1.122 1.363-2.38 2.39-3.78 3.078-1.395.69-2.922 1.033-4.58 1.033-2.947 0-5.463-1.065-7.548-3.202s-3.127-4.736-3.127-7.796c0-2.998 1.05-5.562 3.155-7.692 2.105-2.13 4.637-3.194 7.596-3.194 1.71 0 3.255.363 4.64 1.09 1.382.727 2.6 1.817 3.645 3.27V.537h2.64zM46.087 10.618c-1.49 0-2.865.367-4.126 1.1-1.26.732-2.264 1.76-3.01 3.085-.745 1.325-1.118 2.727-1.118 4.205 0 1.464.376 2.866 1.13 4.205.75 1.337 1.76 2.378 3.026 3.122 1.267.748 2.628 1.12 4.08 1.12 1.466 0 2.854-.37 4.166-1.11 1.312-.737 2.322-1.74 3.03-3 .707-1.26 1.06-2.682 1.06-4.26 0-2.408-.792-4.422-2.38-6.04-1.585-1.618-3.538-2.427-5.857-2.427M61.452 8.57h2.736v3.043c.816-1.2 1.677-2.094 2.582-2.69.906-.59 1.85-.887 2.832-.887.74 0 1.53.236 2.37.708L70.578 11c-.562-.24-1.033-.362-1.415-.362-.894 0-1.755.367-2.583 1.1-.832.733-1.462 1.87-1.896 3.414-.33 1.187-.496 3.585-.496 7.194v7.04h-2.736V8.57zM94.598 8.57v20.816h-2.64V25.81c-1.123 1.364-2.383 2.39-3.778 3.078-1.397.69-2.926 1.033-4.582 1.033-2.947 0-5.462-1.066-7.547-3.203-2.086-2.135-3.13-4.735-3.13-7.796 0-2.995 1.054-5.56 3.16-7.69 2.102-2.13 4.634-3.194 7.593-3.194 1.71 0 3.257.363 4.64 1.09 1.384.727 2.6 1.817 3.645 3.27V8.572h2.64zM83.894 10.62c-1.49 0-2.867.366-4.128 1.1-1.262.732-2.265 1.76-3.01 3.086-.744 1.324-1.117 2.726-1.117 4.203 0 1.465.375 2.867 1.126 4.205.752 1.337 1.76 2.38 3.03 3.124 1.266.746 2.627 1.12 4.08 1.12 1.465 0 2.853-.372 4.165-1.112 1.313-.736 2.322-1.74 3.03-3 .706-1.26 1.06-2.68 1.06-4.26 0-2.407-.793-4.42-2.38-6.04-1.586-1.617-3.537-2.426-5.856-2.426M100.233 8.57h2.678v3.732c1.072-1.43 2.258-2.497 3.56-3.205 1.3-.708 2.716-1.06 4.247-1.06 1.555 0 2.936.394 4.142 1.185 1.204.79 2.093 1.855 2.667 3.194.575 1.34.86 3.425.86 6.256v10.714h-2.677v-9.93c0-2.398-.1-3.998-.298-4.8-.31-1.38-.905-2.415-1.787-3.11-.88-.695-2.027-1.042-3.443-1.042-1.62 0-3.072.535-4.353 1.606-1.283 1.072-2.13 2.4-2.537 3.98-.254 1.033-.382 2.92-.382 5.662v7.634h-2.677V8.57zM123.716.535h2.68V16.97l9.65-8.398h3.933L128.54 18.5l12.11 10.886h-3.772l-10.482-9.372v9.372h-2.68V.536z" fill="#58585a" fill-rule="nonzero"></path><path d="M163.79.535v28.85h-2.64V25.81c-1.124 1.363-2.384 2.39-3.78 3.078-1.395.69-2.925 1.033-4.58 1.033-2.95 0-5.464-1.065-7.55-3.202-2.085-2.137-3.128-4.736-3.128-7.796 0-2.998 1.052-5.562 3.157-7.692 2.103-2.13 4.635-3.194 7.594-3.194 1.71 0 3.256.363 4.64 1.09 1.385.727 2.598 1.817 3.645 3.27V.537h2.64zm-10.706 10.083c-1.49 0-2.866.367-4.127 1.1-1.263.732-2.266 1.76-3.01 3.085-.744 1.325-1.117 2.727-1.117 4.205 0 1.464.375 2.866 1.126 4.205.752 1.337 1.762 2.378 3.03 3.122 1.267.748 2.627 1.12 4.08 1.12 1.466 0 2.854-.37 4.166-1.11 1.312-.737 2.32-1.74 3.028-3 .707-1.26 1.06-2.682 1.06-4.26 0-2.408-.793-4.422-2.378-6.04-1.587-1.618-3.538-2.427-5.858-2.427M179.314 8.035c3.208 0 5.866 1.162 7.975 3.482 1.915 2.117 2.874 4.624 2.874 7.52 0 2.906-1.013 5.45-3.037 7.622-2.027 2.175-4.63 3.26-7.813 3.26-3.193 0-5.802-1.085-7.827-3.26-2.025-2.173-3.038-4.717-3.038-7.623 0-2.883.958-5.383 2.874-7.5 2.107-2.335 4.772-3.502 7.99-3.502m-.01 2.622c-2.225 0-4.138.822-5.738 2.468-1.6 1.644-2.4 3.634-2.4 5.97 0 1.505.364 2.906 1.094 4.207.73 1.3 1.715 2.306 2.956 3.013 1.243.71 2.606 1.063 4.09 1.063 1.485 0 2.848-.354 4.09-1.063 1.24-.707 2.227-1.713 2.956-3.013.73-1.3 1.094-2.702 1.094-4.208 0-2.335-.803-4.325-2.41-5.97-1.606-1.645-3.517-2.467-5.73-2.467M193.023 8.57h15.286l-11.786 18.445h11.404v2.37h-16.014l11.775-18.46h-10.667V8.57zM211.906 0c.61 0 1.13.217 1.562.65.432.433.648.956.648 1.57 0 .6-.216 1.115-.648 1.55-.43.432-.952.65-1.562.65-.598 0-1.11-.218-1.542-.65-.433-.435-.648-.95-.648-1.55 0-.614.215-1.137.648-1.57.43-.433.944-.65 1.542-.65m-1.33 8.57h2.68v20.816h-2.68V8.57zM218.106 8.57h2.715v23.954c0 1.746-.314 3.02-.945 3.816-.632.798-1.496 1.196-2.593 1.196-.905 0-1.925-.217-3.06-.65v-2.41c.714.368 1.357.555 1.932.555.726 0 1.27-.3 1.626-.898.218-.384.326-1.18.326-2.392V8.57zm1.32-8.57c.61 0 1.13.217 1.558.65.428.434.643.957.643 1.57 0 .6-.215 1.115-.643 1.55-.427.433-.947.65-1.558.65-.612 0-1.133-.217-1.56-.65-.426-.435-.642-.95-.642-1.55 0-.613.216-1.136.642-1.57.427-.433.948-.65 1.56-.65M226 8.57h2.678v3.732c1.07-1.43 2.257-2.497 3.557-3.205 1.3-.708 2.717-1.06 4.248-1.06 1.556 0 2.937.394 4.142 1.185 1.205.79 2.094 1.855 2.67 3.194.573 1.34.86 3.425.86 6.256v10.714h-2.68v-9.93c0-2.398-.098-3.998-.296-4.8-.312-1.38-.907-2.415-1.788-3.11-.88-.695-2.027-1.042-3.444-1.042-1.62 0-3.07.535-4.353 1.606-1.282 1.072-2.128 2.4-2.535 3.98-.255 1.033-.382 2.92-.382 5.662v7.634H226V8.57z" fill="#d30f1c" fill-rule="nonzero"></path><path d="M252.45 25.177c.648 0 1.204.23 1.662.69.46.46.69 1.02.69 1.683 0 .65-.23 1.21-.69 1.673-.458.466-1.014.698-1.663.698-.652 0-1.206-.23-1.667-.697-.458-.464-.69-1.024-.69-1.673 0-.662.232-1.224.69-1.684.46-.46 1.015-.69 1.666-.69M259.958 8.57h2.68v3.732c1.07-1.43 2.255-2.497 3.557-3.205 1.3-.708 2.717-1.06 4.247-1.06 1.556 0 2.937.394 4.143 1.185 1.205.79 2.093 1.855 2.668 3.194.574 1.34.86 3.425.86 6.256v10.714h-2.678v-9.93c0-2.398-.098-3.998-.297-4.8-.31-1.38-.906-2.415-1.787-3.11-.88-.695-2.026-1.042-3.443-1.042-1.62 0-3.07.535-4.353 1.606-1.282 1.072-2.128 2.4-2.535 3.98-.256 1.033-.383 2.92-.383 5.662v7.634h-2.68V8.57zM283.06.535h2.678v28.85h-2.678z" fill="#58585a" fill-rule="nonzero"></path><path d="M.227 15.175c.91-1.67 2.23-2.68 3.958-3.025.69-.14 1.35-.15 1.985-.045.81 1.025 1.535 2.517 2.092 3.86-.665-.407-1.35-.548-2.057-.407-.895.18-1.514.666-1.86 1.455-.348.79-.407 1.75-.18 2.88.216 1.07.637 1.923 1.265 2.558.63.635 1.4.862 2.313.678.756-.153 1.362-.584 1.816-1.293.455-.71.503-1.724.234-3.06-.01-.047-.023-.082-.032-.13l-1.086-5.39.01.007-.913-4.533-2.224.447-.663-3.284 6.777-1.364 3.462 17.202 1.337-.27c-.006-.308.002-.597.026-.86.088-1.024.37-2.06.84-3.102.472-1.042 1.183-2.225 2.138-3.546 1.256-1.726 2.063-2.97 2.42-3.732.354-.762.448-1.56.28-2.393-.125-.62-.412-1.095-.86-1.423-.45-.33-.95-.437-1.503-.327-.804.162-1.33.613-1.58 1.355-.25.74-.252 1.868-.007 3.38l-3.744.574c-.39-1.95-.396-3.476-.012-4.582.38-1.104 1.026-1.98 1.936-2.628.907-.646 1.95-1.088 3.12-1.325 1.93-.387 3.55-.16 4.866.686 1.314.846 2.13 2.062 2.452 3.652.172.852.162 1.675-.028 2.463-.188.79-.487 1.48-.898 2.072-.41.592-1.167 1.477-2.272 2.658-1.66 1.776-2.653 3.12-2.984 4.034-.33.913-.477 1.687-.44 2.325l5.904-1.186-.53-2.633 3.04-.613V.536H0v15.102c.072-.154.143-.31.227-.463" fill="#d30f1c" fill-rule="nonzero"></path><path d="M18.128 24.54v.007l-6.893 1.386-.34-1.697C9.88 25.76 8.634 26.67 7.15 26.97c-1.776.358-3.395-.067-4.855-1.276C1.265 24.838.507 23.76 0 22.484v6.68h28.628v-6.738l-10.5 2.113z" fill="#d30f1c" fill-rule="nonzero"></path></svg>
